<svg width="144" height="144" viewBox="0 0 144 144" fill="none" xmlns="http://www.w3.org/2000/svg">
<rect width="144" height="144" rx="30" fill="url(#paint0_linear_121_23472)"/>
<path fill-rule="evenodd" clip-rule="evenodd" d="M74.6474 62.903C73.3718 63.3947 72 62.4532 72 61.0862V53.6337C72 52.2639 70.6231 51.3223 69.3466 51.8192L40.9034 62.8906C39.6269 63.3875 38.25 62.4459 38.25 61.0761V52.1511C38.25 51.3458 38.7457 50.6236 39.4971 50.3341L77.7904 35.5803C79.0659 35.0888 80.4375 36.0303 80.4375 37.3972V44.7314C80.4375 46.0986 81.8097 47.0401 83.0854 46.548L103.102 38.8269C104.378 38.3349 105.75 39.2763 105.75 40.6436V49.5782C105.75 50.3833 105.254 51.1054 104.503 51.395L74.6474 62.903ZM51.231 106.605C51.231 107.68 52.1028 108.552 53.1781 108.552H62.2647C63.34 108.552 64.2118 107.68 64.2118 106.605V64.6587C64.2118 63.2915 62.8396 62.35 61.5639 62.8421L40.1457 71.1038C39.3946 71.3935 38.8993 72.1155 38.8993 72.9205V81.8556C38.8993 83.2228 40.2714 84.1642 41.5471 83.6723L48.5833 80.9586C49.8589 80.4666 51.231 81.4081 51.231 82.7753V106.605ZM86.2265 80.5026C85.4751 80.7921 84.9794 81.5143 84.9794 82.3196V106.604C84.9794 107.679 84.1076 108.551 83.0323 108.551H73.9457C72.8704 108.551 71.9986 107.679 71.9986 106.604V74.2183C71.9986 73.4131 72.4942 72.691 73.2454 72.4015L103.101 60.8934C104.377 60.4018 105.749 61.3432 105.749 62.7103V71.6454C105.749 72.4506 105.253 73.1728 104.501 73.4623L86.2265 80.5026Z" fill="white"/>
<defs>
<linearGradient id="paint0_linear_121_23472" x1="72" y1="-36.3516" x2="72" y2="144" gradientUnits="userSpaceOnUse">
<stop stop-color="#FF9626"/>
<stop offset="1" stop-color="#E00505"/>
</linearGradient>
</defs>
</svg>
